Coordinates
version=1
nRows=5
nColumns=63
inDegrees=yes

Units are S.I. units (second, meters, Newtons, ...)
If the header above contains a line with 'inDegrees', this indicates whether rotational values are in degrees (yes) or radians (no).

endheader
time	pelvis_tilt	pelvis_list	pelvis_rotation	pelvis_tx	pelvis_ty	pelvis_tz	hip_flexion_r	hip_adduction_r	hip_rotation_r	knee_angle_r	knee_angle_r_beta	ankle_angle_r	subtalar_angle_r	mtp_angle_r	hip_flexion_l	hip_adduction_l	hip_rotation_l	knee_angle_l	knee_angle_l_beta	ankle_angle_l	subtalar_angle_l	mtp_angle_l	L5_S1_Flex_Ext	L5_S1_Lat_Bending	L5_S1_axial_rotation	L4_L5_Flex_Ext	L4_L5_Lat_Bending	L4_L5_axial_rotation	L3_L4_Flex_Ext	L3_L4_Lat_Bending	L3_L4_axial_rotation	L2_L3_Flex_Ext	L2_L3_Lat_Bending	L2_L3_axial_rotation	L1_L2_Flex_Ext	L1_L2_Lat_Bending	L1_L2_axial_rotation	L1_T12_Flex_Ext	L1_T12_Lat_Bending	L1_T12_axial_rotation	Abs_r3	Abs_r2	Abs_r1	Abs_t1	Abs_t2	neck_flexion	neck_bending	neck_rotation	arm_flex_r	arm_add_r	arm_rot_r	elbow_flex_r	pro_sup_r	wrist_flex_r	wrist_dev_r	arm_flex_l	arm_add_l	arm_rot_l	elbow_flex_l	pro_sup_l	wrist_flex_l	wrist_dev_l
      0.85000000	    -38.98963637	     10.83582788	    -73.03043026	     -0.10397827	      0.95495749	     -0.96682860	     29.83423141	    -21.35139989	    -27.36492617	     30.45295195	      0.53150428	      0.92158009	     12.83047431	      0.00000000	     43.35864959	    -29.42407363	     37.70227288	     49.26900214	      0.85990631	     16.55646256	    -18.74056568	      0.00000000	     -0.01465706	     -1.07571837	     -0.50675587	     -0.02721963	     -1.43070544	     -0.53842811	     -0.02408009	     -2.61550165	     -0.53842811	     -0.01675156	     -2.61550165	     -0.44341138	     -0.01361055	     -2.19360491	     -0.41173914	     -0.00837504	     -1.66628776	     -0.38006690	     -0.10469392	    -12.16874138	     -2.81842410	      0.00000000	      0.00000000	    -12.20967974	     12.92557364	     -3.61313638	    -29.67019750	    -47.73361638	    -97.34001505	    112.31427665	     89.99559364	      0.00000000	      0.00000000	     10.50291951	    -61.20366564	      7.93406795	     34.31337022	     89.99559364	      0.00000000	      0.00000000
      0.86666667	    -39.13961587	     11.02007084	    -71.97121248	     -0.10199359	      0.95644684	     -0.95842065	     30.20483853	    -20.75724369	    -27.37534456	     31.19558241	      0.54446563	      1.05890995	     13.12071448	      0.00000000	     42.92233713	    -29.37271185	     38.15489438	     47.89559150	      0.83593577	     16.80790641	    -18.60254720	      0.00000000	     -0.01565814	     -1.05965043	     -0.59038416	     -0.02907874	     -1.40933507	     -0.62728317	     -0.02572476	     -2.57643406	     -0.62728317	     -0.01789569	     -2.57643406	     -0.51658614	     -0.01454015	     -2.16083916	     -0.47968713	     -0.00894706	     -1.64139852	     -0.44278812	     -0.11184455	    -11.98697761	     -3.28353956	      0.00000000	      0.00000000	    -12.28962031	     12.98010037	     -3.69284603	    -29.36983385	    -47.64359454	    -97.14839055	    113.97308470	     89.99559364	      0.00000000	      0.00000000	     10.45474812	    -61.15347900	      7.82898887	     34.42574119	     89.99559364	      0.00000000	      0.00000000
      0.88333333	    -39.30732928	     11.39451961	    -70.76325024	     -0.09999654	      0.95717986	     -0.95297359	     30.88694720	    -20.44261852	    -28.99974925	     32.31852217	      0.56406462	      0.93113586	     15.81719291	      0.00000000	     43.09915140	    -29.07598305	     38.68304996	     46.73301615	      0.81564500	     16.92824438	    -18.28730287	      0.00000000	     -0.01290587	     -1.02263568	     -0.94175359	     -0.02396748	     -1.36010545	     -1.00061319	     -0.02120305	     -2.48643639	     -1.00061319	     -0.01475011	     -2.48643639	     -0.82403439	     -0.01198439	     -2.08535867	     -0.76517479	     -0.00737441	     -1.58406266	     -0.70631519	     -0.09218531	    -11.56825931	     -5.23775095	      0.00000000	      0.00000000	    -13.12728304	     12.73626873	     -2.85192239	    -26.72925516	    -48.64764605	    -94.27709177	    115.31169141	     89.99559364	      0.00000000	      0.00000000	      6.66514352	    -60.72765718	      1.34476752	     36.04663870	     89.99559364	      0.00000000	      0.00000000
      0.90000000	    -39.62192514	     11.90917977	    -69.56314435	     -0.09910753	      0.95748585	     -0.95074284	     32.26489267	    -19.63354416	    -29.97243732	     33.57626074	      0.58601630	      0.89095462	     17.71180996	      0.00000000	     43.92096308	    -28.83381111	     39.13674928	     45.81651839	      0.79964910	     16.93230284	    -17.77207262	      0.00000000	     -0.01055509	     -0.96051991	     -1.26087754	     -0.01960186	     -1.27749148	     -1.33968239	     -0.01734096	     -2.33540810	     -1.33968239	     -0.01206342	     -2.33540810	     -1.10326785	     -0.00980146	     -1.95869220	     -1.02446300	     -0.00603118	     -1.48784534	     -0.94565815	     -0.07539397	    -10.86559330	     -7.01262261	      0.00000000	      0.00000000	    -13.05066213	     12.39652966	     -2.32137056	    -24.10704167	    -49.74059044	    -91.59186949	    116.40868249	     89.99559364	      0.00000000	      0.00000000	      5.07566251	    -60.77684791	     -0.29007073	     37.39573568	     89.99559364	      0.00000000	      0.00000000
      0.91666667	    -40.04426150	     12.51659707	    -68.36535311	     -0.09881905	      0.95744918	     -0.95057018	     34.09053516	    -18.34656463	    -30.49595312	     34.57468491	      0.60344209	      1.77424862	     18.55650800	      0.00000000	     45.14381060	    -28.63940548	     39.38390268	     45.05033721	      0.78627671	     16.86263641	    -17.05468635	      0.00000000	     -0.00894303	     -0.87793771	     -1.54547081	     -0.01660810	     -1.16765715	     -1.64206273	     -0.01469251	     -2.13461774	     -1.64206273	     -0.01022099	     -2.13461774	     -1.35228696	     -0.00830450	     -1.79029057	     -1.25569503	     -0.00511005	     -1.35992551	     -1.15910311	     -0.06387918	     -9.93140692	     -8.59544500	      0.00000000	      0.00000000	    -13.19050470	     11.41996700	     -1.14687029	    -21.69739371	    -50.83629387	    -89.32228626	    117.40305929	     89.99559364	      0.00000000	      0.00000000	      3.78371714	    -59.89724258	     -5.11412373	     39.36106354	     89.99559364	      0.00000000	      0.00000000
